<?xml version="1.0" encoding="UTF-8"?><svg id="Layer_1" xmlns="http://www.w3.org/2000/svg" viewBox="0 0 512 512"><defs><style>.cls-1{fill:#a31f34;}.cls-2{fill:#cda8cc;}.cls-3{fill:#5fb96e;}.cls-4{stroke-width:.5px;}.cls-4,.cls-5{fill:none;stroke:#a31f34;}.cls-5{stroke-miterlimit:10;}</style></defs><path class="cls-1" d="m457.41,168.11l-9.14-2.7-5.39,7.79-.15-9.59c-.15,0-9.29-2.7-9.29-2.7l8.99-3.15-.15-9.59,5.69,7.64,8.99-3.15-5.39,7.79,5.69,7.64h.15Z"/><path class="cls-1" d="m68.01,174.64l-5.39-7.94-9.14,2.7,5.84-7.49-5.39-7.94,8.99,3.3,5.84-7.49-.3,9.59,8.99,3.3-9.14,2.7-.3,9.59v-.3Z"/><path class="cls-1" d="m123.06,214.62c0,.15-.15.15-.15.15h-.15c-.15.15-.3,0-.3-.15l.15-.15h.15c.15,0,.15.15.15.15h.15Z"/><path class="cls-1" d="m116.37,111.22c.15.3.15.6-.15.9-.45.3-.45.45-1.65-.15-6.89-3.6-12.28-6.14-16.93-8.24h0c7.04,10.64,8.39,12.13,8.69,12.28,1.35,1.35,1.95,1.5,3.15.3.75-.6.9-.75,1.2-.45.6.6.45.75.3.9-.75.6-1.5,1.35-2.4,2.1-2.7,2.55-2.85,2.85-3,2.85-.3.3-.45.3-.75,0-.45-.45-.45-.6.15-1.35,1.35-1.5,1.2-1.65-.75-4.34l-8.99-13.33c-1.5-.75-1.95-.6-3,.3-1.05,1.05-1.2,1.05-1.65.6-.15-.3-.3-.6,0-.9,1.35-1.35,2.25-1.95,2.85-2.55.6-.6,1.35-1.5,2.7-2.85,0,0,.3-.15.45-.15,4.64,2.55,10.19,5.09,16.03,7.94-1.8-5.24-3.74-10.64-5.99-16.03-.45-.75-.45-1.2-.15-1.35,1.35-1.35,2.4-2.25,2.85-2.55.45-.45,1.35-1.5,3-3,.15-.3.3-.3.75.15s.45.6-.3,1.35c-1.65,1.5-1.5,2.25-.3,3.45.75.9,2.85,2.7,10.64,10.49,2.55,2.55,3,2.85,5.09.9.3-.3.6-.15.75,0,.45.45.6.6.15.9-.9.9-1.95,1.8-2.85,2.7-1.8,1.65-3.45,3.45-5.24,5.09-.3.3-.45.15-.75-.15-.45-.45-.45-.6,0-1.05,1.2-1.05,1.95-1.95,1.2-2.7-2.1-2.1-8.69-8.54-12.73-12.73h0l7.79,20.82-.15-.15Z"/><path class="cls-1" d="m132.16,87.49c-.15.15-.45.3-.3.45.15,1.05.75,4.34,1.5,5.24.45.6,1.05.9,2.25.15,1.5-1.05,1.65-1.05,1.95-.6.15.3.45.6,0,.9-1.05.75-2.25,1.5-3.3,2.25-.9.6-1.8,1.35-2.85,2.1-.3,0-.45,0-.75-.45s-.15-.75.6-1.2c.9-.75.45-1.95.15-3.74-.45-2.25-.9-4.64-1.65-6.89-1.2-4.19-3-13.48-3.15-14.08,0-.15.45-.6.6-.6.6-.45.75-.45,1.05-.3,3.6,2.4,15.43,10.34,18.72,12.13,1.8.9,2.1,1.05,3.6,0,.45-.3.6,0,.75.15.15.3.45.6,0,.75-1.5,1.05-3.15,2.1-4.64,3.15-3,2.1-4.19,3-4.34,3.15-.15.15-.45,0-.6-.3-.3-.6-.45-.6.75-1.35.75-.45,1.2-.9.75-1.5s-4.34-2.85-5.09-3.45l-5.99,4.19v-.15Zm4.64-5.09l-7.64-5.24c.3,1.35,1.65,8.09,2.1,8.69,0,0,.3.15.75-.15l4.79-3.3Z"/><path class="cls-1" d="m159.59,58.83c.15.3-.15.6-.6.9-.6.3-3.45-4.04-7.64-1.8-1.95,1.05-2.7,3.3-1.65,5.39,1.65,3,6.44,1.2,11.38,1.95,2.25.45,3.74,1.65,4.64,3.6,1.8,3.3.6,7.64-4.49,10.34-1.95,1.05-3.6,1.5-5.99,2.7-.3.15-.6.3-.9-.15-.45-.75-2.4-3.6-3-4.64-.15-.15,0-.3.6-.6.3-.15.6,0,1.05.45,2.1,1.8,4.49,2.55,7.34,1.05,2.25-1.2,3-3.3,1.95-5.24-3-5.39-11.98,1.05-15.58-5.69-2.1-3.89-.45-8.09,3.6-10.19,1.05-.6,2.25-.9,3.3-1.2.9-.3,1.65-.45,1.8-.6.3-.15.3-.9.6-1.05.15-.15.45,0,.9.9,1.35,2.4,2.55,3.74,2.7,3.89Z"/><path class="cls-1" d="m181.26,49.57c.15.3-.15.6-.75.75-.45.3-3-4.34-7.34-2.55-2.1.9-3,3-2.25,5.09,1.2,3.15,6.29,1.8,11.08,3.3,2.1.6,3.45,2.1,4.34,4.04,1.35,3.6-.15,7.64-5.69,9.89-2.1.75-3.74,1.05-6.14,1.95-.3.15-.6.15-.9-.15-.3-.75-1.95-3.89-2.4-4.94,0-.15,0-.3.6-.45.45-.15.6,0,.9.6,1.95,2.1,4.19,3,7.19,1.8,2.25-.9,3.3-3,2.55-4.94-2.25-5.84-11.98-.45-14.83-7.49-1.65-4.19.45-8.09,4.64-9.74,1.2-.45,2.4-.75,3.45-.9.9-.3,1.65-.3,1.8-.45.45-.15.45-.75.75-.9s.45,0,.9.9c1.05,2.55,2.1,4.04,2.25,4.19h-.15Z"/><path class="cls-1" d="m196.22,55.53c-.3,0-.45.15-.45.3-.3,1.05-.75,4.34-.45,5.39.15.6.75,1.2,2.1.9,1.65-.45,1.8-.45,1.95.15.15.3.15.75-.3.75-1.2.3-2.55.6-3.74.9-1.2.45-2.25.75-3.45,1.05-.15.15-.3,0-.45-.45-.15-.6,0-.75,1.05-1.05,1.05-.3,1.05-1.5,1.35-3.3.3-2.4.6-4.79.75-7.04.3-4.34,1.65-13.78,1.8-14.38.15-.15.6-.3.9-.45.6-.15.75-.15.9.15,2.55,3.45,11.08,14.98,13.48,17.68,1.35,1.5,1.65,1.65,3.45,1.2.45-.15.6.15.75.45s.15.75-.15.75c-1.8.45-3.74.9-5.39,1.35-3.6.9-4.94,1.35-5.24,1.5-.3,0-.45-.15-.45-.45-.15-.6-.15-.75,1.2-1.05.9-.3,1.5-.45,1.2-1.2-.15-.6-3.15-4.19-3.6-5.09l-7.04,1.95h-.15Zm6.14-3.15l-5.54-7.49c-.15,1.35-1.2,8.09-.9,8.99,0,0,.15.3.75,0l5.69-1.5Z"/><path class="cls-1" d="m238.51,37.79c0,.15-.75.45-.9.45s-.3,0-.3-.15c-1.65-3-4.34-5.09-7.94-4.49-6.14.75-8.24,7.04-7.49,12.43,1.35,9.89,9.59,9.59,10.34,9.44,5.24-.75,6.14-4.19,6.89-6.29,0-.15.15-.3.3-.3.9-.15,1.05,0,1.05.15.15.75,0,3.6,0,4.79,0,.3-.15.45-.6.6-3,1.05-5.69,2.1-8.09,2.4-8.24,1.2-14.83-2.1-16.03-10.79-.6-4.34,1.2-12.13,12.13-13.63,4.34-.6,6.89.3,7.64.3.6,0,.75-.75,1.05-.75s.45.15.6.9c.45,1.8,1.05,3.89,1.2,5.09l.15-.15Z"/><path class="cls-1" d="m253.1,43.56v4.79c0,4.94,0,5.39,2.4,5.39,1.05,0,1.2.15,1.2.9,0,.3-.15.45-.45.45-2.1-.15-3.89-.15-5.84-.3-1.95,0-3.89.15-5.84,0-.3,0-.45-.15-.45-.45,0-.75.15-.9,1.2-.9,2.4.15,2.4-.3,2.55-5.24l.15-11.53c0-4.04-.15-4.49-2.85-4.49-.45,0-.9-.15-.9-.45q0-.9.6-.9c1.95,0,3.89.15,5.84.15,1.95.15,3.74,0,5.69,0q.3,0,.3.9c0,.3-.45.45-1.2.45-2.1,0-2.25.45-2.25,4.34v5.24l10.94.15v-5.24c0-3.89-.15-4.34-2.25-4.49-.75,0-1.2-.15-1.2-.3q0-.9.3-.9c1.95,0,3.89.15,5.84.15s3.89-.15,5.84,0q.6,0,.6.9c0,.15-.45.45-.9.45-2.7,0-3,.45-3,4.34l-.15,11.53c0,4.94,0,5.39,2.4,5.39,1.05,0,1.2.15,1.2.9,0,.3-.15.45-.45.45-1.95-.15-3.89-.15-5.84-.15h-5.84c-.3,0-.45-.15-.45-.45,0-.9.15-.9,1.2-.9,2.4,0,2.55-.45,2.55-5.24v-4.79l-10.94-.15Z"/><path class="cls-1" d="m282.33,38.06c.6-3.89.45-4.34-2.1-4.79-.45-.15-.9-.45-.9-.6q.15-.9.75-.75c1.95.3,3.89.75,5.69,1.05,1.95.3,3.89.45,5.84.75.6.15.6.3.45,1.05,0,.3-.6.3-.9.3-2.7-.45-3,0-3.74,3.89l-1.35,8.24c-1.2,7.64,4.04,8.69,5.84,8.99,4.34.75,7.34-1.95,8.39-7.94l.9-5.84c.9-5.54-.3-5.69-2.4-5.99-.3-.15-.9-.3-.9-.9.15-.45.15-.75.6-.6,1.05.15,2.85.6,4.19.9,1.2.15,2.7.3,4.19.6.45,0,.45.3.3.9,0,.3-.45.3-1.2.3-.9-.15-2.55,0-3,2.4-1.65,8.69-2.25,11.38-2.7,12.73-2.1,5.09-6.74,6.29-11.23,5.54-6.74-1.05-9.29-5.39-8.54-9.74l1.65-10.34.15-.15Z"/><path class="cls-1" d="m326.79,48.32c-.15.3-.6.15-1.05,0-.6-.15.3-5.24-4.19-6.59-2.1-.6-4.19.45-4.94,2.7-.9,3.15,3.74,5.39,6.74,9.44,1.35,1.8,1.5,3.74.9,5.84-1.05,3.6-4.94,5.84-10.64,4.19-2.25-.75-3.6-1.65-6.14-2.4-.3-.15-.6-.15-.6-.6.15-.9.9-4.34,1.2-5.39,0-.15.15-.15.75,0,.45.15.45.45.45,1.05.15,2.85,1.35,5.09,4.34,5.99,2.4.75,4.49-.3,5.09-2.4,1.95-5.99-8.99-7.94-6.89-15.13,1.35-4.34,5.39-5.99,9.74-4.64,1.2.45,2.4.9,3.3,1.35.9.45,1.5.9,1.8.9.3.15.75-.45,1.2-.3.3.15.3.3,0,1.35-.75,2.7-.9,4.49-.9,4.64h-.15Z"/><path class="cls-1" d="m337.11,52.05c1.5-3.6,1.5-4.04-.9-5.24-.45-.15-.75-.45-.6-.6q.3-.9.9-.6c.75.3,2.85,1.35,4.64,2.25,9.89,4.34,11.38,4.79,12.28,5.24.15,0,.3.3.15.3-.15.45-.3,4.64-.6,5.09,0,.15-.3.15-.75,0q-.45-.3-.75-1.5c-.15-.6-.6-2.25-1.5-3.3q-.75-.9-3.3-2.1c-3-1.35-3.15-1.35-3.89.6l-3.15,7.04,1.95.9c2.4,1.05,3.15.6,4.49-1.5.45-.6.6-.75,1.05-.6s.6.3.45.6c-.15.3-.6,1.2-1.8,3.89-.6,1.35-1.05,2.85-1.65,4.19-.15.3-.45.15-1.05-.15-.15-.15-.3-.15,0-.9.75-2.85.6-3.45-3-4.94l-1.05-.45-3.45,7.94c-.45,1.05-.6,1.2,6.89,4.49.6.3,1.8.3,2.55-.3,2.85-1.65,3-1.8,3.6-1.65.45.15.6.3.6.45-.15.15-2.25,2.4-3.6,3.6-.45.45-.45.3-1.35,0-.45.15-1.05-.15-12.88-5.39-3.89-1.65-4.19-1.8-4.64-1.95-.3-.15-.3-.3-.15-.6.3-.75.45-.75,1.35-.3,2.25.9,2.4.6,4.49-3.89l4.64-10.64Z"/><path class="cls-1" d="m380.22,68.29c.6.45,1.5-.15,1.95,0,.3.15.3.45.3.75-.15.6-1.5,5.69-1.65,5.99s-.6,0-.75,0c-.3-.3-.45-.3-.45-.75,0-3.6-.45-5.09-4.49-7.49-1.8-1.05-1.95-1.05-3,.9l-7.04,11.53c-2.55,4.19-2.7,4.64-.6,5.84q.9.6.45,1.35c-.15.3-.3.3-.6.15-1.8-1.05-3.3-2.1-4.94-3.15-1.8-.9-3.45-1.8-5.09-2.85-.3-.15-.3-.3-.15-.6.45-.75.6-.75,1.5-.15,2.1,1.2,2.4.9,4.94-3.3l7.04-11.53q1.05-2.1-1.05-3.3c-3.6-2.25-5.54-1.8-8.54-.45-.45.15-.6.3-.9,0-.3-.15-.6-.3-.3-.6.3-.6,3.89-3.45,4.19-4.04.3-.3.6-.45,1.05-.15.3.15.15,1.05,1.65,1.95l16.48,9.89Z"/><path class="cls-1" d="m404.38,86.8c.6.45,1.5,0,1.95.3.3.3.3.45.15.75-.3.45-2.25,5.39-2.4,5.69s-.6,0-.75-.15q-.3-.3-.3-.75c.45-3.45.15-5.09-3.45-8.09q-1.65-1.35-3.15.45l-8.54,10.64c-3,3.89-3.3,4.19-1.35,5.69.75.6.9.75.3,1.5-.15.3-.3.3-.6,0-1.5-1.2-3-2.4-4.49-3.74-1.65-1.2-3.15-2.4-4.64-3.6-.3-.3-.3-.45-.15-.6q.6-.6,1.5,0c1.95,1.5,2.25,1.2,5.24-2.55l8.54-10.64q1.35-1.8-.45-3.3c-3.3-2.7-5.24-2.55-8.39-1.5-.45.15-.6.15-.9-.15s-.45-.45-.3-.75c.45-.45,4.34-2.85,4.79-3.3.3-.3.6-.45,1.05-.15.3.3,0,1.05,1.35,2.1l14.98,11.98v.15Z"/><path class="cls-1" d="m417.71,107.83c-.15.15-.6,0-.9-.45-.45-.45,2.85-4.34-.45-7.79-1.65-1.65-4.04-1.65-5.54-.15-2.4,2.4.75,6.59,1.35,11.53.3,2.25-.6,4.04-2.1,5.54-2.85,2.7-7.19,2.85-11.38-1.5-1.65-1.5-2.4-3-4.19-4.94-.3-.15-.45-.45-.15-.75.6-.75,2.85-3.45,3.6-4.19.15-.15.3,0,.75.45.15.3,0,.45-.15,1.05-1.2,2.55-1.2,5.09.9,7.34,1.8,1.8,4.04,1.95,5.69.3,4.34-4.34-4.34-11.08,1.2-16.48,3.15-3.15,7.49-2.7,10.64.6.9.9,1.65,1.95,2.25,2.7.6.9.9,1.5,1.05,1.65.3.3.9,0,1.2.3.15.15.15.45-.6,1.2-1.95,1.95-3,3.6-3,3.6h-.15Z"/><path class="cls-1" d="m50.1,284.27c4.04-.6,4.49-.75,4.04-3.6,0-.45.15-.9.3-.9.9-.15,1.05-.15,1.05.45.3,1.95.45,3.89.75,5.84s.75,3.89,1.05,5.84c.15.6,0,.6-.9.75-.15.15-.45-.3-.6-.75-.3-2.7-.75-2.85-4.79-2.25l-11.68,1.8c-4.94.75-5.39.9-5.09,3.3.15,1.05.15,1.2-.75,1.35-.3-.15-.45-.15-.45-.6-.3-1.95-.45-3.89-.75-5.84-.3-1.95-.75-3.89-1.05-5.84,0-.3.15-.45.45-.45q.9-.15,1.05.9c.45,2.55.9,2.55,5.84,1.8l11.68-1.65-.15-.15Z"/><path class="cls-1" d="m54.98,306c-2.85.6-10.34,2.85-11.08,3-6.14,1.8-6.29,1.8-5.39,5.09.15.75.15.9-.6,1.05-.3.15-.45.15-.6-.45-.45-1.2-.75-2.55-1.2-3.89-.3-1.35-.75-2.7-1.2-4.04-.15-.45.15-.6.45-.75.6-.15.75-.15.9.6.75,2.25.9,2.55,3.6,1.95,1.35-.3,10.94-2.85,14.83-4.04.75-.3,1.2-.45,1.8-1.35.9-1.65.9-1.95.6-3q-.15-1.05.3-1.2c.45-.15.75-.15.9.3.3.75.75,3,.9,3.6.3.9,1.05,3.15,1.35,4.19.15.3-.15.6-.3.9-3.89,6.44-7.79,12.73-11.38,19.32,3.6-1.05,7.19-1.8,9.74-2.55,4.79-1.35,4.79-2.7,4.19-4.94-.15-.6,0-.75.45-.9.3-.15.6-.15.75.3.3.9.9,3.6,1.2,4.34.15.6,1.2,3.45,1.35,4.04.15.3,0,.45-.45.6s-.75.15-.9-.3c-.6-2.1-1.5-2.7-3.89-2.1-2.25.45-15.28,3.89-19.17,4.94-.75.15-.75,0-1.05-.75,0-.15,0-.3.75-1.5l13.18-22.32v-.15Z"/><path class="cls-1" d="m69.41,347.65c-.3.15-.6-.15-.75-.75-.3-.6,4.34-3.15,2.4-7.64-.9-2.1-3.15-3-5.24-2.1-3.15,1.35-1.65,6.44-2.85,11.38-.6,2.25-1.95,3.6-3.89,4.49-3.74,1.8-8.09.45-10.49-5.09-.9-2.1-1.2-3.74-2.25-6.14-.15-.45-.3-.6.15-.9.75-.45,3.74-2.25,4.94-2.7.15-.15.15,0,.45.6.15.45,0,.6-.6,1.05-1.95,1.95-2.85,4.49-1.5,7.34,1.05,2.25,3.15,3.3,5.09,2.25,5.84-2.55,0-12.13,7.04-15.28,4.19-1.95,8.24,0,10.04,4.19.6,1.2.9,2.4,1.05,3.45s.3,1.65.45,1.95c.15.3.9.3,1.05.6s0,.45-1.05.9c-2.55,1.2-4.04,2.4-4.19,2.4h.15Z"/><path class="cls-1" d="m89.16,370.45c.45.6,1.5.45,1.65.9.15.3.15.6-.15.75-.45.45-3.89,4.34-4.34,4.64-.3.15-.45-.15-.6-.45q-.3-.45,0-.9c1.65-3.3,1.95-4.79-.6-8.84q-1.2-1.95-3.15-.6l-11.68,7.19c-4.19,2.7-4.64,2.85-3.3,4.94.6.9.6,1.05-.15,1.5-.3.3-.45.3-.6,0-1.05-1.65-2.1-3.45-3.15-5.09-1.05-1.65-2.1-3.3-3.15-4.94-.15-.3-.15-.45.15-.6.75-.45.9-.45,1.35.45,1.35,2.1,1.65,1.95,5.99-.75l11.83-7.19q1.95-1.2.75-3.3c-2.25-3.74-4.19-4.19-7.64-4.34-.45,0-.6-.15-.75-.45-.3-.3-.3-.6,0-.75.45-.3,5.09-1.35,5.69-1.65.3-.15.75-.15,1.05.3s-.3,1.05.6,2.55l10.34,16.63h-.15Z"/><path class="cls-1" d="m91.01,382.5c3.3-2.55,3.45-3,1.8-5.24-.3-.3-.45-.75-.3-.9q.75-.6,1.2-.15c1.2,1.5,2.4,3.15,3.6,4.79,1.2,1.5,2.55,3,3.74,4.64.3.45.3.6-.3,1.05-.15.15-.6-.15-.9-.45-1.65-2.25-2.25-2.1-5.39.45l-9.29,7.34c-3.89,3.15-4.19,3.45-2.7,5.39q.6.9,0,1.5c-.3,0-.45,0-.75-.15-1.2-1.65-2.25-3.15-3.6-4.79-1.2-1.5-2.4-3-3.74-4.64-.15-.15-.15-.3.15-.6.6-.45.75-.45,1.5.45,1.5,1.95,1.95,1.65,5.84-1.35l9.29-7.34h-.15Z"/><path class="cls-1" d="m120.11,405.72c.6.6,1.5.15,1.95.6.3.3.3.45,0,.75-.3.45-2.85,5.24-3.15,5.54-.15.15-.6-.15-.75-.3-.3-.3-.3-.45-.3-.75.75-3.45.75-5.09-2.55-8.54-1.65-1.65-1.65-1.5-3.3.15l-9.74,9.74c-3.6,3.6-3.74,3.89-2.1,5.69.75.75.75.9.15,1.5-.15.15-.3.15-.45-.15-1.5-1.35-2.85-2.85-4.19-4.19-1.35-1.5-2.85-2.85-4.19-4.19-.3-.3-.3-.45,0-.6q.6-.6,1.5.15c1.8,1.8,2.1,1.5,5.69-2.1l9.74-9.74q1.65-1.65-.15-3.3c-3-3.15-4.94-3.3-8.39-2.55-.45,0-.6,0-.9-.3-.3-.15-.3-.45-.15-.75.45-.3,4.64-2.4,5.24-2.85.3-.15.6-.3,1.05,0,.3.3,0,1.2,1.2,2.4l13.78,13.93v-.15Z"/><path class="cls-1" d="m123.39,416.31c2.55-3.3,2.55-3.74.3-5.39-.3-.3-.45-.75-.45-.9q.6-.75,1.05-.45c1.65,1.2,3.15,2.55,4.79,3.74,1.5,1.2,3.15,2.25,4.79,3.45.45.3.45.45-.15,1.05,0,.15-.6.15-.9-.15-2.25-1.65-2.7-1.5-5.09,1.8l-5.09,6.89c-4.64,6.29-.45,9.74,1.05,10.79,3.6,2.7,7.49,1.65,11.23-3.3l3.6-4.79c3.45-4.49,2.4-5.24.6-6.59-.15-.15-.6-.75-.3-1.05.3-.45.45-.6.9-.3.9.6,2.25,1.8,3.45,2.7.9.75,2.4,1.5,3.6,2.55.3.3.15.45-.15,1.05-.3.3-.6.15-1.2-.3-.75-.45-2.25-1.2-3.74.75-5.54,7.19-7.34,9.29-8.39,10.19-4.49,3.6-9.29,2.55-13.03-.3-5.54-4.19-5.84-9.29-3.15-12.88l6.44-8.54h-.15Z"/><path class="cls-1" d="m168.97,438.53c.75.3,1.5-.3,1.95,0,.3.15.3.45.3.75-.15.6-1.2,5.84-1.35,6.14-.15.3-.6,0-.75,0-.45-.15-.45-.3-.45-.75-.3-3.6-.75-5.09-4.94-7.49q-1.95-1.05-3.15,1.05l-6.59,12.13c-2.4,4.34-2.55,4.79-.3,5.99.9.45,1.05.6.6,1.35-.15.3-.3.3-.6.15-1.8-.75-3.45-1.8-5.24-2.7-1.65-1.05-3.45-1.8-5.24-2.85-.3-.15-.3-.3-.15-.6.45-.75.6-.75,1.5-.3,2.1,1.2,2.4.75,4.79-3.6l6.59-12.13c1.05-2.1,1.2-2.1-1.05-3.3-3.74-1.95-5.69-1.5-8.84.15-.3.15-.45.3-.9,0-.3-.15-.45-.3-.3-.6.3-.6,3.74-3.6,4.19-4.19.15-.45.45-.6.9-.3.45.15.3,1.05,1.8,1.95l17.23,9.29v-.15Z"/><path class="cls-1" d="m175.55,447.74c1.5-3.89,1.5-4.34-1.2-5.24-.3-.15-.75-.6-.6-.75q.3-.9.9-.75c.75.3,2.85,1.35,4.94,2.1,10.34,3.89,11.83,4.34,12.88,4.64.15,0,.3.15.3.3-.15.45-.15,4.79-.3,5.24-.15.3-.3.15-.75,0q-.75-.15-1.05-1.35c-.3-.6-.9-2.25-1.8-3.3-.75-.9-.9-.9-3.45-1.95-3.15-1.2-3.3-1.2-4.04.75l-2.85,7.34,2.1.75c2.55.9,3.3.45,4.49-1.65.45-.75.6-.9,1.05-.6.45.15.75.3.6.6s-.6,1.2-1.65,4.19c-.6,1.5-1.05,2.85-1.5,4.34-.15.3-.45.15-1.05,0-.15-.15-.3-.15-.15-.9.6-3,.45-3.45-3.3-4.94l-1.05-.45-3.15,8.24c-.45,1.2-.45,1.35,7.19,4.19.6.15,1.8.15,2.55-.45,2.85-1.8,3-2.1,3.6-1.8.45.15.75.3.6.45,0,.15-2.1,2.55-3.45,3.89-.3.45-.45.45-1.35,0-.3,0-.9-.3-13.18-4.94-4.19-1.5-4.49-1.5-4.94-1.65-.3-.15-.3-.3-.15-.6.3-.75.45-.9,1.35-.45,2.25.9,2.55.45,4.34-4.19l4.19-11.08h-.15Z"/><path class="cls-1" d="m228.35,468.72c-.6,3-3.3,8.39-11.38,7.04-5.24-.9-8.39-4.94-7.49-10.34.9-5.24,5.84-7.94,11.23-7.04,5.24.9,8.39,4.94,7.49,10.34h.15Zm-14.53-2.55c-.6,3-.45,7.94,3.74,8.69,4.19.75,5.84-3.3,6.44-6.89.6-3.3.3-7.94-3.74-8.69-4.34-.75-5.84,3.45-6.44,6.89Z"/><path class="cls-1" d="m235.15,464.85c.15-2.85,0-3.15-1.8-3.3-.45,0-.75-.3-.6-.45q0-.6.45-.6c.6,0,2.25.3,3.74.45,7.64.6,8.84.6,9.44.6.15,0,.3.15.3.15,0,.3.75,3.15.75,3.6-.15.15-.3.15-.6.15s-.3,0-.9-.75c-.3-.3-.9-1.35-1.8-1.8-.6-.45-.75-.45-2.7-.6-2.25-.3-2.4-.3-2.55,1.2l-.45,5.54,1.5.15c1.95.15,2.4-.45,2.85-2.1.15-.45.15-.6.6-.6.3,0,.45,0,.45.3s-.15.9-.3,3.15c0,1.05,0,2.1-.15,3.15,0,.15-.3.15-.75.15q-.15,0-.15-.6c-.3-2.1-.45-2.4-3.15-2.55h-.75l-.3,3.3c-.3,3.45-.3,3.74,1.5,3.89q1.05.15,1.05.75c0,.15-.15.3-.6.3-1.5-.15-2.85-.3-4.19-.45-1.5-.15-2.85-.15-4.19-.3-.3,0-.3-.15-.3-.3,0-.6.15-.6.9-.6,1.65.15,1.8-.15,2.1-3.6l.6-8.24Z"/><path class="cls-1" d="m285.79,455.98c.75-.15,1.05-1.05,1.65-1.2.3,0,.45.15.6.45.15.6,2.25,5.54,2.25,5.99,0,.3-.45.3-.6.3-.45.15-.45,0-.75-.3-2.25-2.85-3.45-3.89-8.24-3.45-2.25.15-2.25.3-1.95,2.55l1.35,13.78c.45,4.94.6,5.39,3,5.24,1.05-.15,1.2,0,1.2.75,0,.3,0,.45-.45.45-1.95.15-3.89.3-5.84.45-1.95.15-3.89.45-5.84.6-.3,0-.45-.15-.45-.45-.15-.9,0-.9,1.05-1.05,2.4-.3,2.55-.75,1.95-5.69l-1.35-13.78q-.3-2.1-2.7-1.8c-4.19.3-5.54,1.8-7.19,4.79-.3.45-.3.6-.75.6s-.6,0-.75-.3c0-.6,1.2-5.24,1.2-5.84,0-.45.15-.75.6-.9.45,0,.9.75,2.55.6l19.47-1.95v.15Z"/><path class="cls-1" d="m297.33,459.64c-.9-3.89-1.2-4.34-3.89-3.74-.45.15-.9,0-1.05-.15q-.15-.9.45-1.05c.9-.3,3.15-.6,5.09-1.2,10.79-2.55,12.28-3,13.33-3.3.15,0,.3,0,.3.15.15.6,2.55,4.04,2.7,4.49,0,.3-.15.45-.6.45q-.6.15-1.5-.6c-.6-.45-1.95-1.35-3.3-1.8-1.05-.15-1.2-.15-4.04.45-3.15.75-3.3.75-2.85,2.85l1.8,7.64,2.1-.45c2.55-.6,3-1.5,2.85-3.89,0-.75,0-1.05.45-1.2.6-.15.75-.15.9.15s.15,1.35.9,4.34c.3,1.5.75,3,1.2,4.34,0,.3-.15.3-.9.6q-.3,0-.6-.6c-1.05-2.7-1.35-3.15-5.24-2.25l-1.2.3,2.1,8.54c.3,1.2.3,1.35,8.39-.6.6-.15,1.5-.9,1.95-1.8,1.2-3.15,1.35-3.45,1.95-3.6.6-.15.75-.15.75,0s-.3,3.3-.6,5.09q-.15.6-1.05.75c-.6.15-1.35.3-14.08,3.3-4.19,1.05-4.49,1.2-4.94,1.2-.3.15-.45,0-.6-.3q-.15-.9.9-1.2c2.4-.6,2.4-1.05,1.2-5.84l-2.7-11.38-.15.3Z"/><path class="cls-1" d="m342.85,445.75c0,.15-.6.6-.75.6-.15.15-.3.15-.45,0-2.4-2.7-5.39-4.04-8.84-2.55-5.99,2.25-6.59,8.99-4.49,14.08,3.74,9.59,11.83,7.19,12.58,6.89,5.09-1.95,5.09-5.69,5.39-7.94,0-.15,0-.3.15-.3q.9-.3,1.05,0c.3.75.9,3.6,1.2,4.79.15.3-.15.6-.45.75-2.7,1.8-5.09,3.45-7.34,4.34-7.94,2.85-15.28,1.35-18.57-7.04-1.65-4.19-1.8-12.28,8.69-16.48,4.19-1.65,7.04-1.35,7.64-1.5.45-.3.6-.9.9-1.05s.45,0,.75.75c.9,1.65,2.1,3.6,2.4,4.64h.15Z"/><path class="cls-1" d="m358.32,444.69l2.4,4.19c2.55,4.34,2.85,4.64,4.94,3.45.9-.6,1.05-.6,1.5.15.15.3.15.45-.15.6-1.8,1.05-3.45,1.95-5.24,2.85-1.65,1.2-3.3,2.25-5.09,3.15-.3.3-.45.15-.6-.15-.45-.75-.3-.75.6-1.35,2.1-1.2,1.95-1.65-.6-5.99l-5.84-10.19c-2.1-3.6-2.4-3.74-4.79-2.4-.45.15-.9.3-1.05,0q-.45-.75,0-1.05c1.8-1.05,3.6-1.95,5.24-2.85,1.8-1.05,3.3-2.1,5.09-3.15.15-.15.3,0,.75.75,0,.15-.15.6-.9.9-1.8,1.05-1.8,1.65.3,5.09l2.7,4.64,9.74-5.54-2.7-4.64c-2.1-3.6-2.55-3.89-4.34-2.85-.6.45-1.2.45-1.2.3-.45-.75-.45-.9-.3-.9,1.8-1.05,3.45-1.95,5.24-2.85,1.65-1.05,3.3-2.1,5.09-3.15q.45-.3.9.45c.15.3-.15.6-.45.9-2.4,1.35-2.4,1.8-.3,5.39l5.84,10.19c2.55,4.34,2.85,4.64,4.94,3.45.9-.6,1.05-.45,1.5.15.15.3.15.45-.15.6-1.65,1.05-3.45,1.95-5.24,2.85-1.65,1.05-3.45,2.1-5.09,3-.3.15-.45.15-.6-.15-.45-.75-.3-.9.6-1.35,2.1-1.2,1.95-1.65-.6-5.99l-2.4-4.19-9.74,5.54v.15Z"/><path class="cls-1" d="m380.07,421.64c1.65,2.4,6.59,8.39,7.19,8.99,4.04,4.94,4.19,5.09,6.74,3,.6-.45.75-.45,1.2,0,.3.3.3.45,0,.75-1.05.9-2.25,1.65-3.3,2.55s-2.1,1.8-3.15,2.7c-.45.3-.6.15-.9-.15-.3-.45-.45-.6.15-1.05,1.8-1.65,1.95-1.8.45-4.04-.9-.9-7.04-8.69-9.59-11.98-.6-.6-.9-.9-1.95-1.05-1.95-.15-2.1,0-3,.6s-.9.6-1.2.15c-.3-.3-.45-.6-.15-.75.6-.6,2.4-1.95,3-2.25.75-.6,2.4-2.25,3.3-3,.3-.15.6-.15.9,0,7.34,1.05,14.83,2.25,22.17,2.85-2.4-3-4.34-5.84-6.14-7.94-3.15-3.89-4.34-3.45-6.14-1.95-.45.45-.6.3-.9-.15-.3-.15-.45-.45-.15-.75.75-.6,3-2.25,3.6-2.7.6-.45,2.7-2.4,3.15-2.7.3-.15.45-.15.75.15.3.3.45.6,0,.9-1.8,1.35-1.8,2.4-.45,4.34,1.35,1.8,9.44,12.58,12.13,15.73.45.6.3.75-.3,1.2-.15,0-.15.15-1.65-.15l-25.61-3.45-.15.15Z"/><path class="cls-1" d="m424.56,388.68c3.3,2.85,7.79,10.19,0,19.02-5.09,5.54-12.43,6.44-18.13,1.2-5.69-5.09-5.39-13.03,0-19.02,5.09-5.69,12.43-6.44,18.13-1.2Zm-14.08,15.58c3.15,2.85,9.44,6.44,13.33,1.95,4.19-4.64.45-9.59-3.45-13.03-3.45-3.15-9.44-6.29-13.33-1.95-4.04,4.64-.3,9.74,3.45,13.03Z"/><path class="cls-1" d="m424.31,377.88c-3.45-2.25-3.89-2.4-5.39,0-.3.3-.75.6-.9.45-.75-.45-.75-.6-.45-1.05,1.2-1.65,2.4-3.15,3.45-4.79s2.1-3.45,3.15-5.09q.45-.45,1.2,0c.15.15.15.6-.15,1.05-1.5,2.25-1.35,2.7,2.1,4.94l12.13,8.24c1.65,1.05,2.1,1.05,3.74-1.5,2.7-4.04,3.89-5.84.6-10.34-.3-.3-.15-.45,0-.9.15-.3.3-.45.6-.3.45.3,4.64,4.64,4.79,4.94.15.15,0,.3-.15.6-.9,1.2-4.19,5.99-6.29,9.14-3,4.49-3.89,5.99-4.94,7.64-.15.3-.3.3-.6.15-.75-.45-.75-.6-.15-1.5,1.35-2.1,1.05-2.4-3.15-5.09l-9.74-6.59h.15Z"/><path class="cls-1" d="m453.85,338.87c3.89,1.95,10.34,7.79,5.09,18.28-3.45,6.89-10.19,9.59-17.23,6.14-6.74-3.3-8.54-11.08-4.94-18.28,3.3-6.89,10.19-9.59,17.08-6.14Zm-9.29,18.87c3.89,1.95,10.79,3.6,13.48-1.65,2.7-5.54-2.25-9.29-6.89-11.68-4.19-2.1-10.79-3.6-13.48,1.65-2.7,5.54,2.25,9.44,6.74,11.68h.15Z"/><path class="cls-1" d="m465.73,318.13c-.3-.15-1.35-.45-2.1,1.65l-.6,1.8c-.15.3-.45.3-.9.15-.45-.15-.6-.3-.45-.75.6-1.95,1.35-3.89,1.95-5.84.6-1.8,1.05-3.6,1.65-5.39.15-.3.3-.3.75-.15.6.15.75.3.15,1.95-.15.6,0,1.5,1.95,2.1l2.7.9c1.35.45,1.65-.6,2.55-.3.6.15.15,2.1,0,2.55-.3,2.7-.75,5.54-1.65,8.09-3.3,10.34-9.74,12.58-16.33,10.49-7.19-2.4-10.04-10.34-7.64-17.83,1.65-5.09,4.64-7.04,4.94-7.64.15-.6-.45-1.2-.3-1.35,0-.15.3-.3.3-.3,1.95.6,4.04,1.2,5.84,1.8.3,0,.3.3.15.75-.15.9-1.95.15-3.45.6-3.15,1.05-4.64,2.55-5.84,6.29-1.8,5.69,3,10.04,8.24,11.83,5.84,1.95,11.23.45,13.18-5.24.45-1.2,1.35-4.04-1.35-4.94l-3.6-1.2h-.15Z"/><path class="cls-1" d="m472.61,291.42c4.94.9,5.39.9,5.84-1.5.15-1.05.3-1.2,1.05-1.05.3,0,.45.15.3.45-.3,1.95-.75,3.89-1.05,5.84-.3,1.95-.6,3.89-.9,5.84,0,.3-.15.45-.45.3-.9-.15-.9-.3-.75-1.35.45-2.4,0-2.55-4.94-3.45l-2.25-.45c-.45,0-.6,0-2.4.6l-8.54,2.85c-3.6,1.35-4.19,1.35-4.49,2.85-.15.9-.45,1.05-.75,1.05-.45-.15-.75-.15-.75-.6.45-2.25.9-4.34,1.2-5.84.3-1.35.45-3.15.75-5.39.15-.3.45-.3.75-.3q.6.15.6,1.35c-.15,1.2-.15,1.65.6,1.8.45,0,2.85-.6,8.54-2.55,1.8-.6,2.25-.75,2.25-.75,0-.15-.45-.6-.75-.75-6.44-5.24-7.49-5.84-7.94-5.84-.75-.15-1.2-.15-1.65,1.5-.3,1.2-.45,1.2-1.05,1.05-.3,0-.45-.3-.45-.75.3-1.2.6-2.4.9-3.74.15-1.2.3-2.4.45-3.6.15-.45.3-.45.75-.3.45,0,.6.15.45,1.05-.15,1.05,0,1.65.75,2.4.75.75,4.94,4.04,10.04,8.09.6.45.75.45,1.05.6l2.85.45v.15Z"/><path class="cls-1" d="m344.62,412.39c-1.05-3.89-4.49-16.03-4.49-16.03-.45-2.4-2.4-3.6-10.19-1.8-5.09,1.2-30.11,11.83-45.84,12.73-1.35.15-4.79.75-9.14.15,0-1.5.3-7.19.15-7.79-.6-7.19-34.45-8.09-40.74-1.2-.3.45-.45.75-.45.9h0v4.34c-1.2-.15-2.55-.3-3.89-.6-19.17-3.89-27.56-9.44-44.49-9.59-3.45-.15-5.54,1.95-6.74,4.04-1.2,2.25-8.54,21.57-8.54,21.57v.45c0,.15.9.45,1.05.45h.45l.45-1.35c4.49-5.24,13.48-2.7,17.83-1.8,1.5.3,5.24,1.65,9.89,3.15-.15.45-.6,1.2-.9,2.1-1.65-.3-8.39-1.35-21.72.45,0,.15,1.2.9,1.2.9,0,0,18.72-1.8,20.07-.15-1.05,2.1-2.1,4.49-2.4,4.94.3.45,3.15,2.1,5.54,1.35,3.15-.9,5.24-6.14,5.69-7.19,8.09,2.4,17.08,4.79,23.97,4.64,12.28-.45,14.08-3.6,14.08-4.19,0-.15-.15-2.1-.15-4.79,8.24-4.64,15.73-1.35,18.13-.15-.6,3-.75,6.14-.6,6.59,0,.15.15.3.15.3,9.89,4.19,14.38,4.79,27.56,2.85,10.49-1.5,23.97-5.99,32.36-9.29v4.64c0,.75.6,1.65,2.1,2.85,1.05.9,2.25.9,2.4.75s1.2-5.24,1.35-6.44c1.8-.3,4.19-.45,7.94-.15,6.59.45,9.29-3.6,8.39-7.64h-.45Zm-146.95,15.28l3.3-7.34c.6.15,1.2.45,1.8.6l-2.1,3.74s1.5.6,1.35,2.85c-1.2,2.1-3.89.45-4.49.15h.15Zm5.54-1.35c.45-1.2-.9-2.1-1.05-2.25l1.8-2.7c.6.15,1.2.3,1.8.6-.6,1.65-1.8,3.45-2.4,4.49l-.15-.15Zm40.59-3.6c-1.5,1.8-5.84,2.55-12.13,2.85-13.03.15-25.17-4.79-41.64-9.89-9.89-3-14.38-1.2-17.38.6l.3-.75c1.05-3.15,7.19-17.83,7.19-17.83.75-1.5,2.1-3,4.49-3.15,13.18-.9,20.22,3.74,45.09,9.59,4.19,1.05,11.38.75,13.48-.9.15,2.85.9,17.23.75,19.62l-.15-.15Zm-8.99-22.77c2.7.75,7.64.3,7.94,1.95.45,1.05-3,2.25-7.94,1.8v-3.74Zm10.04,16.93c-.3-6.29-.9-15.28-.9-15.28-.3-3-10.94-1.2-8.39-3.15,6.59-5.24,31.91-5.24,37.6,0,2.7,3.45-4.04,1.8-6.74,4.64-.75.75-.75,1.35-.75,2.25-.6,4.64-1.65,7.04-2.55,11.38-5.09-3-14.68-2.4-18.42.15h.15Zm29.66-15.73c-.15,1.35-.45,4.94-.45,6.29-6.14-.15-9.74-1.95-6.14-4.34,2.1-1.5,4.49-1.05,6.59-1.95Zm51.68,23.97c-1.05-.15-2.55-1.05-2.25-2.25.3-1.05,1.35-2.1,3.15-2.55-.3,1.8-.9,4.34-.9,4.79Zm16.03-11.53c1.05.15,1.35.6,1.05,1.5-.6,3-3.3,3.74-6.59,3.74-2.85-.15-9.74-.45-12.28,1.5l-.15.15v-2.85c1.35-.6,2.7-1.05,3.89-1.5,3.89-1.5,11.08-3.15,14.23-2.55h-.15Zm-16.48,2.25c-8.09,3-20.97,8.54-36.4,10.64-9.89,1.35-15.43,2.25-25.47-2.55-.15,0-.3-.3-.45-.45.3-5.54,2.4-13.33,3-16.63,2.25,1.35,10.04,1.95,18.13,1.2,18.72-1.65,40.59-12.28,49.28-13.48,2.7-.3,4.64-.45,5.39,2.25.3,1.35,3.45,12.43,4.49,15.73-6.44-.75-12.73,1.05-18.13,3.15l.15.15Z"/><path class="cls-1" d="m246.12,401.57c-.15-.9-.45-1.2-.75-1.2l-.9.15c-.3,0-.45,0-.45-.3,0-.15,0-.3.15-.3,1.2-.15,2.55-.3,3.74-.45,1.2-.3,2.55-.6,3.74-.75.15,0,.3,0,.3.15.15.3.6,1.8.6,1.95v.15h-.3q-.15.15-.3,0l-.6-.6c-.45-.75-1.05-.75-2.25-.45q-1.35.15-1.35.9l.45,3.3c.45-.15.9-.15,1.35-.3,1.05-.15,1.2-.3,1.2-.9s.15-.75.3-.75.3,0,.3.15c0,.3.15,1.05.15,1.8.15.6.3,1.05.3,1.5q0,.15-.3.15c-.15,0-.3,0-.45-.6-.15-.75-.6-.75-1.35-.6l-1.35.15.6,3.6c.15.45.3.45,1.95.3,1.35-.15,1.8-.45,2.25-1.35l.45-.9s0-.15.15-.15h.3q.15,0,.15.15v.3l-.3,2.1c.15,0,0,0-.3.15-.45,0-1.95.15-3.3.45-1.5.15-3,.45-4.49.75-.15,0-.3-.15-.3-.3s.15-.15.3-.3l.9-.3c.45,0,.6-.3.45-1.2l-1.05-6.44Z"/><path class="cls-1" d="m259.65,400.51c.15-.9,0-1.05-.45-1.05l-1.2-.15c-1.35-.15-2.1-.15-2.7.75q-.45.6-.6.6c-.3,0-.45-.15-.45-.15,0-.15.15-.45.15-.45l.75-1.65.15-.3s.15,0,.15.15q.15.15.3.15l9.29,1.05c.3,0,.3-.15.45-.15s.15-.15.3-.15.3.15.3.3l.3,1.5c0,.3.15.6.15.6-.15.15-.15.3-.45.15-.15,0-.3-.15-.6-.6-.45-.9-.75-1.05-2.25-1.2-1.5-.15-1.65-.15-1.8.45l-.75,6.89c-.15.9,0,1.2.75,1.35l.9.15c.15,0,.3,0,.3.3-.15.15-.15.3-.3.3-.3,0-1.2-.15-2.7-.3-1.5-.15-2.4-.15-2.7-.3-.15,0-.15-.15-.15-.3s.15-.3.3-.15h.9c.6,0,.9-.15.9-1.2l.75-6.74v.15Z"/><path class="cls-1" d="m255.96,18.98C125.04,18.98,18.99,125.04,18.99,255.96s106.06,236.98,236.98,236.98,236.98-106.06,236.98-236.98S386.88,18.98,255.96,18.98Zm0,472.75c-130.17,0-235.78-105.61-235.78-235.78S125.79,20.18,255.96,20.18s235.78,105.61,235.78,235.78-105.61,235.78-235.78,235.78h0Z"/><path class="cls-1" d="m256,70.7c-102.31,0-185.3,82.99-185.3,185.3s82.99,185.3,185.3,185.3,185.3-82.99,185.3-185.3-82.99-185.3-185.3-185.3Zm0,369.39c-101.71,0-184.25-82.39-184.25-184.1S154.29,71.74,256,71.74s184.1,82.39,184.1,184.1-82.39,184.1-184.1,184.1v.15Z"/><path class="cls-1" d="m255.98,65.14c-105.46,0-190.84,85.38-190.84,190.84s85.38,190.84,190.84,190.84,190.84-85.38,190.84-190.84-85.38-190.84-190.84-190.84Zm0,380.48c-104.71,0-189.64-84.93-189.64-189.64S151.27,66.34,255.98,66.34s189.64,84.93,189.64,189.64-84.93,189.64-189.64,189.64Z"/><path class="cls-1" d="m256,0C114.59,0,0,114.59,0,256s114.59,256,256,256,256-114.59,256-256S397.41,0,256,0Zm0,510.65C115.34,510.65,1.35,396.66,1.35,256S115.34,1.35,256,1.35s254.65,113.99,254.65,254.65-113.99,254.65-254.65,254.65Z"/><path class="cls-1" d="m255.94,11.93C121.13,11.93,11.93,121.13,11.93,255.94s109.2,244.02,244.02,244.02,244.02-109.2,244.02-244.02S390.76,11.93,255.94,11.93Zm0,485.04c-133.02,0-241.02-107.85-241.02-241.02S122.92,14.92,255.94,14.92s241.02,107.85,241.02,241.02-107.85,241.02-241.02,241.02Z"/><path class="cls-1" d="m189.77,404.87c1.43,1.62,2.83,3.26,4.2,4.91.67.82,1.25,1.39,1.76,1.73.5.33,1.02.55,1.55.66-.02.11-.04.22-.05.33-2-.28-4.01-.52-6.04-.72.01-.11.03-.22.04-.33.36.04.63,0,.81-.09.18-.1.27-.22.29-.36.02-.14,0-.27-.04-.39-.04-.12-.21-.35-.51-.69-1.3-1.52-2.63-3.04-3.99-4.53-.16,1.3-.31,2.6-.46,3.89-.07.61-.07,1.02-.01,1.22.05.15.17.29.36.42.26.16.54.26.84.29.15.01.29.03.44.04-.01.11-.03.22-.04.33-1.82-.16-3.65-.29-5.49-.39,0-.11.02-.22.03-.33.15,0,.31.02.46.03.54.03.94-.09,1.21-.37.17-.18.29-.63.37-1.36.27-2.61.56-5.21.88-7.82.08-.61.08-1.02.02-1.23-.05-.15-.17-.28-.37-.4-.28-.16-.58-.25-.91-.27-.16,0-.32-.02-.49-.03.01-.11.03-.22.04-.33,1.96.11,3.91.26,5.85.44-.02.11-.03.22-.05.33-.15-.01-.31-.03-.46-.04-.31-.03-.63.01-.94.13-.22.08-.39.21-.49.39-.11.18-.2.57-.28,1.17-.16,1.23-.32,2.46-.48,3.7.14-.1.64-.45,1.49-1.02,2.17-1.44,3.53-2.38,4.03-2.88.22-.22.34-.41.37-.59.02-.14-.03-.26-.15-.38-.12-.12-.35-.2-.69-.23-.1-.01-.21-.02-.31-.03.02-.11.04-.22.05-.33,1.67.17,3.33.37,4.98.58-.02.11-.04.22-.06.33-.29-.03-.56-.03-.81,0-.25.03-.57.12-.94.27-.38.14-.85.39-1.42.75-.16.1-.94.63-2.3,1.6-.77.54-1.54,1.09-2.3,1.64Z"/><path class="cls-1" d="m208.49,401.78c-.34,1.36-.66,2.73-.98,4.09-.12-.02-.23-.05-.35-.07.07-.81,0-1.47-.18-2-.19-.52-.53-.97-1.03-1.35-.49-.38-1.04-.61-1.64-.72-.68-.12-1.28-.02-1.81.28-.52.3-.83.69-.93,1.16-.07.36,0,.72.21,1.06.31.5,1.14,1.24,2.47,2.23,1.08.81,1.79,1.42,2.16,1.82.36.4.61.84.75,1.32.14.48.15.95.04,1.42-.2.9-.74,1.6-1.61,2.11-.87.51-1.87.66-3.02.47-.36-.06-.69-.15-1-.25-.18-.06-.56-.23-1.13-.51-.57-.28-.93-.43-1.09-.46-.15-.02-.29,0-.39.08-.11.08-.2.25-.29.52-.11-.02-.23-.03-.34-.05.23-1.37.47-2.74.71-4.1.12.02.23.03.35.05,0,.88.11,1.56.31,2.02.2.47.55.89,1.06,1.26.51.37,1.09.61,1.75.73.77.13,1.41.05,1.93-.26.53-.3.84-.72.96-1.24.06-.29.04-.6-.07-.93-.11-.33-.31-.66-.62-.98-.21-.22-.79-.71-1.77-1.47-.98-.76-1.68-1.34-2.09-1.75-.4-.41-.69-.84-.85-1.29-.17-.45-.2-.92-.11-1.41.17-.86.68-1.54,1.54-2.05.86-.51,1.87-.66,3-.47.71.12,1.42.41,2.14.86.33.21.57.33.72.36.17.03.32.01.45-.06.13-.07.26-.24.39-.5.12.02.24.05.36.07Z"/><path class="cls-1" d="m219.71,404.65c1.49.4,2.97.81,4.45,1.24-.04.1-.07.21-.11.31-.08-.02-.16-.05-.24-.07-.16-.05-.42-.05-.77-.01-.35.04-.7.15-1.04.32-.33.17-.78.48-1.32.93-1.48,1.19-2.92,2.4-4.34,3.62-.28.98-.55,1.95-.81,2.93-.2.72-.23,1.19-.11,1.41.16.3.48.51.97.64.13.03.26.07.39.1-.03.11-.06.21-.09.32-1.7-.45-3.41-.87-5.14-1.27.03-.11.05-.21.08-.32.14.03.29.07.43.1.52.12.92.06,1.21-.19.18-.15.35-.56.53-1.22.24-.93.49-1.85.74-2.78-.7-1.91-1.42-3.82-2.16-5.73-.27-.67-.46-1.1-.57-1.27-.11-.18-.38-.42-.8-.72-.11-.09-.29-.15-.54-.2.03-.11.06-.21.08-.32,1.87.39,3.73.81,5.58,1.26-.03.11-.06.21-.09.32-.1-.02-.19-.05-.29-.07-.3-.07-.59-.07-.88,0-.29.07-.46.23-.54.48-.06.21.03.63.27,1.26.54,1.47,1.07,2.94,1.58,4.42,1.15-1,2.33-1.98,3.52-2.95.54-.44.85-.78.94-1.05.05-.16.05-.31,0-.46-.05-.15-.15-.28-.3-.4-.15-.12-.39-.22-.73-.31.03-.11.07-.21.1-.32Z"/><path class="cls-1" d="m230.23,413.53c.41,1.51.8,3.02,1.18,4.54.31,1.26.58,2.08.81,2.47.23.39.59.69,1.08.91-.04.1-.08.2-.12.31-1.63-.63-3.27-1.23-4.92-1.8.04-.1.07-.21.11-.31.33.11.59.16.77.16.14,0,.26-.05.38-.13.11-.08.19-.17.23-.27.05-.13.07-.27.06-.41,0-.11-.07-.41-.2-.91-.31-1.21-.62-2.41-.95-3.62-1.2.74-2.39,1.49-3.56,2.25-.37.24-.6.41-.69.51-.09.09-.15.2-.19.32-.06.18-.03.36.09.52.12.17.39.33.82.49-.03.1-.07.21-.1.31-1.38-.45-2.78-.88-4.18-1.29.03-.11.06-.21.1-.32.31.06.58.08.83.05.41-.04.81-.13,1.22-.29.41-.15.9-.42,1.5-.8,1.31-.85,2.65-1.68,4-2.5-.39-1.36-.8-2.72-1.22-4.08-.34-1.11-.71-1.87-1.08-2.3-.37-.42-.86-.74-1.47-.94.04-.1.07-.21.11-.31,1.95.58,3.88,1.2,5.8,1.84-.04.1-.08.21-.12.31-.49-.15-.86-.19-1.08-.12-.23.07-.37.18-.43.34-.08.21-.04.56.1,1.05.31,1.08.61,2.16.91,3.25,1.03-.61,2.08-1.21,3.13-1.79.37-.21.61-.36.71-.45.1-.09.17-.19.22-.31.05-.12.05-.23.02-.35-.04-.15-.13-.27-.25-.37-.12-.1-.4-.23-.83-.39.04-.1.08-.21.12-.31,1.46.52,2.91,1.05,4.34,1.61-.04.1-.09.2-.13.31-.35-.11-.65-.17-.9-.17-.38,0-.74.06-1.1.18-.36.12-.9.37-1.62.78-1.18.66-2.35,1.34-3.5,2.03Z"/><path class="cls-1" d="m279.77,416.02c1.95,1.46,3.97,2.86,6.07,4.21,1.03.67,1.9,1.09,2.59,1.29.69.2,1.36.28,2,.25.03.11.05.22.08.33-2.35.28-4.73.48-7.13.6-.02-.11-.04-.22-.06-.33.43-.02.73-.1.9-.23.17-.13.24-.26.21-.41-.03-.14-.08-.27-.18-.38-.09-.11-.36-.31-.8-.6-1.95-1.3-3.84-2.64-5.67-4.04.14,1.32.29,2.63.46,3.95.08.62.18,1.03.31,1.23.1.15.27.28.52.38.34.14.7.21,1.05.2.17,0,.34,0,.52-.01.02.11.03.22.05.33-2.17.06-4.35.05-6.54-.01-.01-.11-.02-.22-.04-.34.18,0,.36.01.55.02.64.02,1.08-.12,1.33-.42.16-.19.19-.66.11-1.39-.29-2.65-.53-5.29-.7-7.93-.04-.62-.11-1.03-.21-1.24-.08-.15-.23-.28-.45-.39-.31-.15-.63-.24-.96-.25-.17,0-.33-.01-.5-.02,0-.11,0-.22-.01-.33,1.99.09,3.97.12,5.93.09,0,.11.02.22.03.33-.16,0-.31,0-.47,0-.32,0-.62.07-.91.21-.2.1-.34.24-.41.43-.07.19-.08.59-.03,1.19.1,1.25.22,2.5.35,3.75.13-.11.58-.5,1.34-1.16,1.92-1.66,3-2.81,3.36-3.38.15-.25.22-.46.2-.64-.02-.14-.1-.26-.26-.35-.15-.1-.4-.14-.74-.13-.1,0-.21,0-.31.01-.01-.11-.02-.22-.04-.33,1.68-.06,3.34-.16,4.99-.3.02.11.03.22.05.33-.29.03-.55.09-.78.17-.23.09-.51.23-.83.45-.32.21-.71.54-1.17.99-.13.13-.74.78-1.85,1.94-.64.64-1.29,1.28-1.95,1.92Z"/><path class="cls-1" d="m296.96,408.42c.34,1.36.7,2.73,1.07,4.09-.12.02-.24.05-.37.07-.33-.76-.7-1.34-1.12-1.75-.42-.41-.94-.7-1.56-.87-.62-.18-1.23-.22-1.82-.12-.67.11-1.2.38-1.57.81-.37.44-.51.89-.42,1.37.08.36.29.68.64.94.51.38,1.63.83,3.38,1.3,1.43.38,2.43.66,2.99.88.56.22,1.03.52,1.41.89.38.37.65.79.8,1.26.28.89.12,1.74-.51,2.56-.63.82-1.62,1.36-2.97,1.6-.42.08-.83.12-1.22.13-.23,0-.72-.02-1.47-.1-.75-.08-1.22-.11-1.41-.08-.18.02-.31.09-.39.19-.08.1-.11.29-.1.58-.13.02-.27.04-.4.05-.34-1.37-.67-2.74-.98-4.11.13-.02.26-.03.39-.05.38.84.78,1.45,1.2,1.83.42.38.99.67,1.71.85.72.18,1.47.21,2.24.07.89-.16,1.53-.48,1.92-.96.39-.48.5-.99.35-1.5-.09-.29-.27-.56-.55-.82-.28-.26-.65-.48-1.12-.66-.32-.13-1.15-.36-2.49-.73-1.34-.38-2.29-.72-2.87-.99-.58-.27-1.04-.6-1.38-.98-.34-.38-.56-.82-.66-1.32-.17-.86.07-1.65.69-2.37.62-.72,1.48-1.15,2.6-1.33.7-.11,1.46-.08,2.31.09.39.08.66.1.81.08.17-.03.29-.1.37-.21.08-.11.12-.31.12-.59.12-.02.23-.05.35-.07Z"/><path class="cls-1" d="m307.91,405.81c1.41-.47,2.81-.96,4.19-1.49.04.1.08.2.13.3-.08.03-.15.06-.23.09-.15.06-.35.21-.59.44-.24.24-.44.52-.59.85-.15.33-.29.82-.44,1.49-.42,1.78-.87,3.56-1.35,5.33.38.95.76,1.9,1.16,2.85.29.7.57,1.1.83,1.21.35.15.8.14,1.35-.05.15-.05.29-.1.44-.15.05.1.09.2.14.3-1.91.66-3.85,1.27-5.82,1.82-.04-.1-.08-.21-.12-.31.16-.05.33-.09.49-.14.58-.17.94-.44,1.06-.8.08-.22-.02-.66-.27-1.29-.36-.9-.71-1.8-1.05-2.71-1.81-1.24-3.56-2.53-5.24-3.86-.59-.47-.98-.76-1.17-.87-.19-.11-.55-.21-1.07-.3-.14-.03-.33-.01-.57.04-.03-.11-.06-.21-.09-.32,1.82-.41,3.62-.87,5.39-1.38.03.11.07.21.1.32-.09.03-.18.05-.28.08-.29.08-.53.22-.74.41-.2.19-.27.41-.19.67.07.21.37.53.93.95,1.3,1,2.64,1.97,4.02,2.91.4-1.44.77-2.88,1.13-4.32.16-.65.19-1.1.09-1.36-.06-.16-.16-.28-.29-.38-.13-.09-.29-.15-.48-.16-.19-.02-.44.03-.77.14-.04-.1-.08-.21-.11-.31Z"/><path class="cls-1" d="m321.98,405.93c1.47.73,2.97,1.42,4.51,2.08,1.28.54,2.18.82,2.68.87.5.05,1.03-.07,1.57-.35.06.09.12.18.19.28-1.71.99-3.46,1.93-5.24,2.82-.06-.1-.11-.19-.17-.29.35-.18.59-.35.73-.49.1-.11.16-.24.18-.37.02-.14,0-.25-.05-.35-.07-.12-.17-.22-.3-.31-.09-.07-.4-.21-.9-.43-1.22-.55-2.42-1.12-3.6-1.72-.32,1.36-.66,2.72-1.02,4.08-.11.43-.17.71-.17.84,0,.13.03.25.09.36.09.17.25.27.48.31.23.04.59-.04,1.07-.24.05.1.11.19.16.29-1.51.69-3.04,1.34-4.59,1.96-.05-.1-.1-.2-.15-.3.32-.16.57-.33.76-.51.33-.3.6-.65.84-1.03.23-.38.45-.92.64-1.6.43-1.51.83-3.02,1.2-4.54-1.34-.66-2.65-1.35-3.93-2.07-1.04-.58-1.83-.93-2.39-1.02-.56-.09-1.12-.03-1.71.18-.04-.1-.09-.2-.13-.31,1.82-.71,3.6-1.48,5.34-2.29.05.1.1.2.15.3-.44.23-.71.43-.82.63-.11.2-.13.38-.05.53.1.2.37.43.83.68,1,.56,2.03,1.11,3.07,1.64.26-1.14.51-2.28.74-3.43.08-.4.11-.67.11-.8,0-.13-.04-.25-.1-.36-.06-.11-.15-.19-.26-.24-.14-.07-.29-.09-.43-.07-.15.02-.42.13-.82.32-.05-.1-.1-.2-.15-.29,1.31-.66,2.6-1.35,3.87-2.06.05.1.11.19.17.29-.29.19-.51.37-.66.55-.22.28-.4.58-.52.92-.13.33-.26.89-.41,1.68-.24,1.29-.51,2.57-.79,3.86Z"/><path class="cls-5" d="m197.48,246.79c-.2-2.62.67-4.79,2.82-6.34,1.83-1.32,3.94-1.83,6.18-1.83.73.01,1.45.01,2.18.03,3.83.12,6.86,1.64,8.89,4.99.92,1.52,2.44,2.34,4.13,2.1,3.66-.53,4.95-3.88,3.48-6.79-1.74-3.45-4.54-5.86-8.04-7.34-2.06-.87-4.28-1.47-6.49-1.88-1.48-.28-3.07-.04-4.61-.03-1.05.06-2.11.04-3.14.21-4.12.67-7.7,2.46-10.51,5.57-3.11,3.44-4.17,7.6-3.85,12.16.09.56.16,1.13.26,1.69.77,4.02,3.18,6.89,6.47,9.14,3.54,2.42,7.59,3.56,11.65,4.66,2.5.91,5.07,1.68,7.49,2.77,2.31,1.05,3.77,2.93,4,5.58.06.68.1,1.36.15,2.03-.06.08-.17.15-.18.23-.48,2.9-2.4,4.54-4.95,5.6-2.42,1-4.98,1.18-7.56,1.2-2.4-.35-4.68-1.03-6.72-2.36-1.79-1.17-2.98-2.84-4.01-4.67-1.46-2.6-5.36-2.96-7.2-.66-1.46,1.83-1.62,2.98-.58,5.13,2.15,4.43,5.65,7.42,10.03,9.47,2.5,1.17,5.15,1.82,7.91,2.01,2.51.13,4.99-.07,7.45-.56,5.56-1.12,10.06-3.79,12.9-8.84,1.02-1.81,1.65-3.76,1.66-5.87.01-1.2.05-2.4.03-3.6-.03-2.1-.63-4.06-1.63-5.89-1.66-3.04-4.12-5.27-7.18-6.85-2.87-1.48-5.84-2.71-9.05-3.27-.79-.26-1.6-.51-2.38-.79-1.84-.67-3.71-1.27-5.5-2.06-2.14-.95-3.7-2.49-4.09-4.93Zm-92.46,13.36c0,9.32-.01,18.64-.02,27.96,0,1.58.49,2.96,1.8,3.93,1.47,1.08,3.07,1.27,4.71.47,1.81-.89,2.55-2.46,2.55-4.42,0-6.77,0-13.54,0-20.31,2.03,1.43,4.06,2.86,6.07,4.31,7.73,5.57,15.46,11.14,23.18,16.72,1.52,1.1,3.12,1.5,4.89.78,1.72-.7,2.52-2.12,2.67-3.89.14-1.74-.68-3.08-2.06-4.08-6.79-4.9-13.59-9.78-20.38-14.68-3.81-2.75-7.6-5.51-11.4-8.27,5.67-3.81,11.34-7.63,17.01-11.44,4.54-3.05,9.1-6.08,13.64-9.14,2.63-1.78,3.11-4.85,1.14-7.01-1.61-1.75-4.02-1.96-6.2-.49-5.42,3.63-10.83,7.29-16.25,10.92-4.09,2.74-8.2,5.47-12.29,8.2,0-15.52,0-31.03,0-46.55,0-.34.02-.68,0-1.02-.15-2.22-1.76-4.11-3.67-4.32-2.51-.27-4.5.86-5.12,3.04-.23.8-.26,1.68-.26,2.52-.02,12.25-.01,24.5,0,36.75,0,5.61.01,11.23.02,16.84-.02.29-.05.59-.07.88,0,.61,0,1.21,0,1.82.02.16.04.32.07.47Zm181.57,28.93c-1.58,2.81-2.95,5.76-4.78,8.4-3.33,4.77-7.8,8.05-13.73,8.83-1.59.21-3.25-.08-4.88-.08-2.23,0-4.08,1.6-4.4,3.75-.33,2.19,1,4.37,3.14,4.98,2.41.68,4.88.58,7.34.28,4.06-.49,7.76-1.91,11.18-4.11,5.61-3.6,9.44-8.73,12.46-14.55.65-1.26,1.2-2.57,1.8-3.86.1-.21.22-.41.31-.63,4.08-10.34,8.16-20.68,12.24-31.02,3.75-9.52,7.51-19.04,11.26-28.55.68-1.72.69-3.38-.54-4.88-2-2.43-6.35-2.37-7.92,1.67-4.07,10.45-8.21,20.88-12.33,31.31-1.81,4.58-3.65,9.15-5.47,13.73-1.63-3.24-3.26-6.47-4.88-9.71-3.49-7.02-6.96-14.04-10.44-21.07-2.44-4.93-4.87-9.88-7.34-14.8-1.28-2.55-3.86-3.49-6.21-2.29-2.22,1.14-3.16,3.8-1.87,6.29,1.17,2.25,2.26,4.54,3.39,6.81,3.31,6.69,6.64,13.37,9.93,20.06,2.89,5.88,5.74,11.78,8.64,17.66,1.41,2.86,2.87,5.69,4.3,8.54-.36.95-.71,1.91-1.07,2.86v.07c-.05.1-.11.21-.16.31Zm95.39-24.01c5.46,6.38,10.92,12.76,16.38,19.13,1.7,1.98,3.37,4.01,5.19,5.88,1.32,1.36,3.06,1.43,4.74.69,1.67-.74,2.46-2.07,2.53-3.94.06-1.54-.61-2.67-1.54-3.75-4.31-5.03-8.62-10.08-12.93-15.11-2.81-3.28-5.63-6.54-8.45-9.81.2-.27.38-.56.6-.82,6.27-7.35,12.55-14.69,18.78-22.06.52-.61.85-1.45,1.07-2.23.55-2-.35-3.94-2.15-4.88-1.8-.95-4.2-.55-5.5.97-2.79,3.25-5.55,6.53-8.33,9.79-3.47,4.06-6.95,8.1-10.42,12.16-.82-.95-1.65-1.9-2.47-2.85-5.43-6.36-10.85-12.73-16.3-19.07-1.47-1.71-4.03-2.03-5.83-.77-1.62,1.14-2.9,3.41-1.54,5.77.29.5.63.97,1,1.41,6.37,7.48,12.76,14.95,19.14,22.42-.12.2-.21.43-.36.6-4.94,5.8-9.89,11.58-14.83,17.38-2.27,2.66-4.59,5.29-6.78,8.02-1.77,2.21-1.22,5.05,1.13,6.51,2.05,1.29,4.29.89,6.09-1.19,4.15-4.81,8.26-9.66,12.39-14.49,2.79-3.25,5.59-6.49,8.38-9.73Z"/><path class="cls-5" d="m381.96,251.06c3.48-4.05,6.96-8.1,10.42-12.16,2.78-3.26,5.55-6.53,8.33-9.79,1.3-1.51,3.69-1.92,5.5-.97,1.79.95,2.69,2.89,2.15,4.88-.22.79-.55,1.62-1.07,2.23-6.24,7.37-12.52,14.71-18.78,22.06-.22.26-.4.54-.6.82-1.98,2.31-3.95,4.61-5.93,6.92-2.8,3.24-5.6,6.48-8.38,9.73-4.13,4.83-8.24,9.68-12.39,14.49-1.8,2.08-4.03,2.48-6.09,1.19-2.34-1.47-2.9-4.31-1.13-6.51,2.19-2.73,4.51-5.36,6.78-8.02,4.94-5.79,9.89-11.58,14.83-17.38.15-.17.24-.4.36-.6,2-2.3,4-4.61,6-6.91Z"/><path class="cls-5" d="m287.83,285.84c-1.44-2.85-2.9-5.68-4.3-8.54-2.89-5.88-5.74-11.78-8.64-17.66-3.3-6.69-6.62-13.37-9.93-20.06-1.13-2.27-2.22-4.56-3.39-6.81-1.3-2.49-.36-5.16,1.87-6.29,2.35-1.2,4.93-.26,6.21,2.29,2.46,4.92,4.89,9.87,7.34,14.8,3.48,7.02,6.96,14.05,10.44,21.07,1.61,3.24,3.25,6.47,4.88,9.71,1.37,2.83,2.77,5.66,4.11,8.51.31.66.54,1.41.56,2.13.05,2.05-1.07,3.4-2.84,4.29-2.11.6-3.89.08-5.31-1.61-.33-.61-.66-1.21-.99-1.82Z"/><path class="cls-5" d="m294.13,289.27c1.76-.89,2.89-2.24,2.84-4.29-.02-.72-.25-1.47-.56-2.13-1.33-2.85-2.73-5.68-4.11-8.51,1.83-4.58,3.66-9.15,5.47-13.73,4.12-10.43,8.26-20.86,12.33-31.31,1.57-4.04,5.92-4.1,7.92-1.67,1.23,1.49,1.22,3.15.54,4.88-3.76,9.52-7.51,19.04-11.26,28.55-4.08,10.34-8.16,20.68-12.24,31.02-.09.22-.21.42-.31.63.06-1.2.06-2.38-.61-3.45Z"/><path class="cls-4" d="m105.02,256.98c0-5.61-.02-11.23-.02-16.84,0-12.25,0-24.5,0-36.75,0-.84.03-1.72.26-2.52.62-2.18,2.61-3.31,5.12-3.04,1.91.21,3.52,2.1,3.67,4.32.02.34,0,.68,0,1.02,0,15.52,0,31.03,0,46.55-2.24,1.54-4.5,3.06-6.72,4.62-.82.58-1.75,1.11-1.81,2.3h0c-.09.13-.17.26-.26.4-.04.01-.07.02-.11.02-.05-.03-.1-.06-.16-.07Z"/><path class="cls-4" d="m105.18,257.05s.08,0,.11-.02c.09-.14.17-.27.26-.41,0,0,0,.01,0,.01,1.94-2.76,5.38-2.66,7.75-.61,1.15.99,2.49,1.77,3.74,2.65,3.8,2.76,7.59,5.52,11.4,8.27,6.79,4.9,13.59,9.78,20.38,14.68,1.39,1,2.2,2.34,2.06,4.08-.14,1.77-.95,3.19-2.67,3.89-1.77.72-3.37.32-4.89-.78-7.72-5.59-15.45-11.16-23.18-16.72-2.01-1.45-4.05-2.87-6.07-4.3-2.13-1.57-4.25-3.16-6.41-4.69-1.11-.78-2.04-1.67-2.49-2.98-.07-.14-.13-.29-.2-.43,0-.61,0-1.21,0-1.82.08-.27.15-.54.23-.81Z"/><path class="cls-4" d="m117.04,258.67c-1.25-.88-2.59-1.66-3.74-2.65-2.38-2.04-5.81-2.15-7.75.61.05-1.2.99-1.73,1.81-2.3,2.23-1.56,4.48-3.08,6.72-4.62,4.1-2.73,8.2-5.46,12.29-8.2,5.42-3.63,10.83-7.29,16.25-10.92,2.18-1.46,4.58-1.26,6.2.49,1.98,2.15,1.5,5.23-1.14,7.01-4.54,3.06-9.09,6.09-13.64,9.14-5.67,3.81-11.34,7.63-17.01,11.44Z"/><path class="cls-5" d="m294.13,289.27c.68,1.06.68,2.25.61,3.45-.6,1.29-1.15,2.6-1.8,3.86-3.02,5.82-6.85,10.95-12.46,14.55-3.42,2.2-7.13,3.62-11.18,4.11-2.47.3-4.93.4-7.34-.28-2.15-.61-3.48-2.79-3.14-4.98.33-2.15,2.17-3.75,4.4-3.75,1.63,0,3.28.29,4.88.08,5.93-.78,10.4-4.05,13.73-8.83,1.83-2.63,3.2-5.59,4.78-8.4.06-.1.11-.21.17-.31,0,0,0-.07,0-.07.69-.35,1.37-.69,2.06-1.04,1.42,1.69,3.19,2.21,5.31,1.61Z"/><path class="cls-5" d="m381.98,265.07c1.98-2.31,3.95-4.61,5.93-6.92,2.82,3.27,5.64,6.53,8.45,9.81,4.32,5.03,8.62,10.07,12.93,15.11.93,1.08,1.59,2.21,1.54,3.75-.07,1.87-.86,3.21-2.53,3.94-1.68.74-3.42.67-4.74-.69-1.82-1.87-3.49-3.9-5.19-5.88-5.47-6.37-10.92-12.75-16.38-19.13Z"/><path class="cls-5" d="m381.96,251.06c-2,2.3-4,4.61-6,6.91-6.38-7.47-12.77-14.94-19.14-22.42-.37-.44-.71-.91-1-1.41-1.36-2.36-.08-4.64,1.54-5.77,1.8-1.26,4.36-.95,5.83.77,5.45,6.34,10.87,12.71,16.3,19.07.82.96,1.64,1.9,2.47,2.85Z"/><path class="cls-4" d="m105.16,260.11c.45,1.31,1.39,2.2,2.49,2.98,2.16,1.53,4.28,3.12,6.41,4.69,0,6.77,0,13.54,0,20.31,0,1.96-.74,3.53-2.55,4.42-1.64.81-3.25.62-4.71-.47-1.31-.97-1.8-2.35-1.8-3.93,0-9.32.01-18.64.02-27.96.05,0,.09-.02.14-.05Z"/><path class="cls-4" d="m206.03,229.71c1.54,0,3.12-.25,4.61.03,2.21.42,4.42,1.01,6.49,1.88,3.5,1.48,6.3,3.89,8.04,7.34,1.46,2.91.18,6.26-3.48,6.79-1.69.24-3.21-.58-4.13-2.1-2.03-3.35-5.06-4.87-8.89-4.99-.73-.02-1.45-.02-2.18-.03-.19-.15-.39-.31-.58-.46-.66-.51-1.48-.89-1.96-1.53-1.84-2.47-.9-5.45,2.09-6.93Z"/><path class="cls-5" d="m227.29,274.18c-.01,2.11-.65,4.06-1.66,5.87-2.84,5.05-7.34,7.72-12.9,8.84-2.46.49-4.94.7-7.45.56-.21-.2-.4-.42-.64-.58-1.5-.99-2.32-2.39-2.22-4.18.13-2.17,1.45-3.47,3.43-4.16,2.58-.02,5.15-.2,7.56-1.2,2.55-1.06,4.47-2.7,4.95-5.6.01-.09.12-.15.18-.23.08.14.18.28.25.43.73,1.69,1.98,2.74,3.83,2.87,1.91.13,3.42-.58,4.29-2.39.05-.11.24-.16.37-.24Z"/><path class="cls-5" d="m227.29,274.18c-.13.08-.32.12-.37.24-.87,1.81-2.38,2.52-4.29,2.39-1.85-.13-3.1-1.19-3.83-2.87-.06-.15-.16-.28-.25-.43-.05-.68-.09-1.36-.15-2.03-.23-2.65-1.69-4.53-4-5.58-2.42-1.1-4.99-1.86-7.49-2.77.29-.06.6-.06.86-.18.9-.42,1.91-.73,2.63-1.37,1.89-1.67,1.7-5.37-.96-7,3.21.56,6.18,1.79,9.05,3.27,3.06,1.58,5.52,3.81,7.18,6.85,1,1.83,1.6,3.79,1.63,5.89.02,1.2-.02,2.4-.03,3.6Z"/><path class="cls-5" d="m206.03,229.71c-2.99,1.48-3.93,4.46-2.09,6.93.48.64,1.3,1.03,1.96,1.53.2.15.39.3.58.46-2.24,0-4.35.51-6.18,1.83-2.15,1.55-3.02,3.72-2.82,6.34-.06.12-.14.23-.19.36-.65,1.99-2.08,3.12-4.09,3.31-1.9.18-3.25-.91-4.24-2.47-.1-.15-.29-.24-.44-.35-.32-4.56.74-8.71,3.85-12.16,2.81-3.11,6.39-4.9,10.51-5.57,1.03-.17,2.09-.14,3.14-.21Z"/><path class="cls-5" d="m188.53,247.64c.15.12.34.2.44.35.99,1.56,2.34,2.64,4.24,2.47,2.01-.19,3.44-1.33,4.09-3.31.04-.13.12-.24.19-.36.39,2.45,1.95,3.98,4.09,4.93,1.79.79,3.66,1.39,5.5,2.06.79.29,1.59.53,2.38.79,2.65,1.62,2.85,5.33.96,7-.72.64-1.74.95-2.63,1.37-.26.12-.57.12-.86.18-4.07-1.1-8.12-2.24-11.65-4.66-3.29-2.25-5.7-5.12-6.47-9.14-.11-.56-.18-1.12-.26-1.69Z"/><path class="cls-5" d="m205.86,280.55c-1.99.69-3.3,1.99-3.43,4.16-.11,1.79.71,3.19,2.22,4.18.24.16.43.38.64.58-2.76-.19-5.42-.84-7.91-2.01-4.37-2.04-7.88-5.04-10.03-9.47-1.04-2.15-.88-3.3.58-5.13,1.84-2.3,5.74-1.94,7.2.66,1.03,1.83,2.23,3.5,4.01,4.67,2.05,1.33,4.33,2.01,6.72,2.36Z"/><path class="cls-5" d="m288.82,287.66c-.69.35-1.37.69-2.06,1.04.36-.95.71-1.91,1.07-2.86.33.61.66,1.21.99,1.82Z"/><path class="cls-2" d="m105.18,257.05c-.08.27-.15.54-.23.81.02-.29.05-.59.07-.88.06.02.11.04.16.07Z"/><path class="cls-2" d="m105.16,260.11s-.09.04-.14.05c-.02-.16-.04-.32-.07-.47.07.14.13.29.2.43Z"/><path class="cls-5" d="m286.77,288.77c-.06.1-.11.21-.17.31.06-.1.11-.21.17-.31Z"/><path class="cls-3" d="m105.55,256.62c-.09.14-.17.27-.26.41.09-.14.17-.27.26-.41Z"/></svg>